:FULLY-SPECIFIED
:FORCE-ALL-JOINTS-BE-3DOF
:DEGREES
68
root 5.93604 16.7376 -28.0534 11.1089 3.28533 -4.22253
lfemur -36.1214 15.3503 -16.6804
ltibia 52.6408 0 0
lfoot -19.9431 -11.1384 0
ltoes 31.229 0 0
rfemur -15.594 -2.15924 22.7278
rtibia 28.1758 0 0
rfoot -29.3476 -18.2579 0
rtoes -10.8036 0 0
lowerback -3.58755 2.65435 3.73234
upperback -1.4793 3.41602 -0.22508
thorax 0.706473 1.70139 -2.18229
lowerneck -10.0059 -2.64292 2.19127
upperneck -5.75967 -3.67082 2.15547
head -0.147441 -1.85235 0.202235
lclavicle 2.25005e-14 9.03983e-15 0
lhumerus -40.6949 -12.163 93.5658
lradius 44.3714 0 0
lwrist 7.93504 0 0
lhand -11.3167 2.13989 0
lfingers 7.12502 0 0
lthumb 14.7182 31.6299 0
rclavicle 2.25005e-14 9.03983e-15 0
rhumerus -39.1334 2.14638 -92.2378
rradius 42.9799 0 0
rwrist 6.85205 0 0
rhand -24.2613 -22.0674 0
rfingers 7.12502 0 0
rthumb 2.22494 -52.0343 0
69
root 5.9428 16.7318 -28.0323 11.1967 3.31787 -4.42441
lfemur -36.676 15.4344 -16.2148
ltibia 52.7169 0 0
lfoot -19.6235 -10.4025 0
ltoes 30.4734 0 0
rfemur -14.936 -2.45675 23.1295
rtibia 27.1422 0 0
rfoot -30.2796 -18.6551 0
rtoes -11.441 0 0
lowerback -3.60258 2.76262 3.83515
upperback -1.52297 3.55916 -0.199831
thorax 0.67851 1.77163 -2.21097
lowerneck -10.0282 -2.70629 2.25343
upperneck -5.83941 -3.76027 2.13959
head -0.171629 -1.89876 0.186091
lclavicle 2.20918e-14 9.77122e-15 0
lhumerus -40.7715 -11.8893 93.3674
lradius 44.4162 0 0
lwrist 7.96819 0 0
lhand -11.448 2.0573 0
lfingers 7.12502 0 0
lthumb 14.5931 31.5723 0
rclavicle 2.20918e-14 9.77122e-15 0
rhumerus -38.9559 2.3434 -92.3644
rradius 43.0716 0 0
rwrist 6.83195 0 0
rhand -24.1059 -22.0678 0
rfingers 7.12502 0 0
rthumb 2.37502 -52.033 0
70
root 5.94827 16.7266 -28.0119 11.2914 3.31586 -4.62222
lfemur -37.1731 15.4575 -15.7529
ltibia 52.7021 0 0
lfoot -19.3816 -9.55345 0
ltoes 29.7174 0 0
rfemur -14.2372 -2.71553 23.5474
rtibia 26.0262 0 0
rfoot -31.2916 -19.1065 0
rtoes -12.0072 0 0
lowerback -3.63692 2.87424 3.92355
upperback -1.57083 3.70732 -0.173946
thorax 0.656315 1.84433 -2.23022
lowerneck -10.0478 -2.76363 2.3225
upperneck -5.91118 -3.84261 2.11923
head -0.193908 -1.94164 0.167699
lclavicle 2.15533e-14 1.0524e-14 0
lhumerus -40.8497 -11.6121 93.1771
lradius 44.4357 0 0
lwrist 7.98908 0 0
lhand -11.6054 1.97229 0
lfingers 7.12502 0 0
lthumb 14.4429 31.5156 0
rclavicle 2.15533e-14 1.0524e-14 0
rhumerus -38.7742 2.50772 -92.5032
rradius 43.1368 0 0
rwrist 6.83664 0 0
rhand -23.9604 -22.0644 0
rfingers 7.12502 0 0
rthumb 2.51553 -52.0278 0
71
root 5.9532 16.7221 -27.9916 11.3878 3.2871 -4.81477
lfemur -37.6122 15.4204 -15.2956
ltibia 52.6024 0 0
lfoot -19.2082 -8.60968 0
ltoes 28.9635 0 0
rfemur -13.5167 -2.93984 23.9689
rtibia 24.8683 0 0
rfoot -32.3435 -19.5871 0
rtoes -12.4966 0 0
lowerback -3.68536 2.98751 3.9973
upperback -1.62161 3.85819 -0.146817
thorax 0.638227 1.91837 -2.23947
lowerneck -10.0653 -2.81616 2.39716
upperneck -5.97357 -3.91935 2.09458
head -0.213726 -1.98172 0.147235
lclavicle 2.08926e-14 1.12865e-14 0
lhumerus -40.931 -11.3329 92.9951
lradius 44.4349 0 0
lwrist 8.00183 0 0
lhand -11.7771 1.88831 0
lfingers 7.12502 0 0
lthumb 14.2791 31.4617 0
rclavicle 2.08926e-14 1.12865e-14 0
rhumerus -38.5915 2.64211 -92.6431
rradius 43.1813 0 0
rwrist 6.86182 0 0
rhand -23.8237 -22.0553 0
rfingers 7.12502 0 0
rthumb 2.64757 -52.0169 0
72
root 5.9583 16.7182 -27.971 11.481 3.23936 -5.00086
lfemur -37.9928 15.3242 -14.844
ltibia 52.4238 0 0
lfoot -19.0938 -7.58981 0
ltoes 28.2141 0 0
rfemur -12.794 -3.13393 24.3809
rtibia 23.709 0 0
rfoot -33.3949 -20.0721 0
rtoes -12.9035 0 0
lowerback -3.7427 3.10072 4.05614
upperback -1.67401 4.00949 -0.117836
thorax 0.622585 1.99262 -2.23814
lowerneck -10.0811 -2.86512 2.47607
upperneck -6.02514 -3.99201 2.06585
head -0.23053 -2.01973 0.124875
lclavicle 2.01174e-14 1.20473e-14 0
lhumerus -41.017 -11.0536 92.8218
lradius 44.4187 0 0
lwrist 8.01059 0 0
lhand -11.9515 1.80877 0
lfingers 7.12502 0 0
lthumb 14.1126 31.4124 0
rclavicle 2.01174e-14 1.20473e-14 0
rhumerus -38.4108 2.74935 -92.7731
rradius 43.2109 0 0
rwrist 6.90318 0 0
rhand -23.6946 -22.0386 0
rfingers 7.12502 0 0
rthumb 2.77223 -51.9986 0
73
root 5.96429 16.7148 -27.9497 11.5658 3.18046 -5.17932
lfemur -38.3143 15.1698 -14.3991
ltibia 52.1722 0 0
lfoot -19.0292 -6.51239 0
ltoes 27.4719 0 0
rfemur -12.0882 -3.30206 24.7707
rtibia 22.5889 0 0
rfoot -34.4059 -20.5366 0
rtoes -13.2223 0 0
lowerback -3.80372 3.21214 4.09984
upperback -1.72676 4.15894 -0.0863943
thorax 0.607727 2.06598 -2.22568
lowerneck -10.0957 -2.91172 2.5579
upperneck -6.06449 -4.06211 2.03324
head -0.243767 -2.05638 0.100792
lclavicle 1.92351e-14 1.27946e-14 0
lhumerus -41.1092 -10.7757 92.6576
lradius 44.392 0 0
lwrist 8.01951 0 0
lhand -12.1168 1.73711 0
lfingers 7.12502 0 0
lthumb 13.9548 31.3696 0
rclavicle 1.92351e-14 1.27946e-14 0
rhumerus -38.2351 2.83223 -92.8821
rradius 43.2313 0 0
rwrist 6.95641 0 0
rhand -23.572 -22.0127 0
rfingers 7.12502 0 0
rthumb 2.89061 -51.9709 0
74
root 5.97192 16.7119 -27.927 11.6373 3.11817 -5.34895
lfemur -38.5763 14.9581 -13.9618
ltibia 51.8535 0 0
lfoot -19.0049 -5.39601 0
ltoes 26.7392 0 0
rfemur -11.4188 -3.44849 25.1253
rtibia 21.5486 0 0
rfoot -35.336 -20.9555 0
rtoes -13.4473 0 0
lowerback -3.86321 3.32008 4.12813
upperback -1.77857 4.30426 -0.0518848
thorax 0.591993 2.13732 -2.2015
lowerneck -10.1094 -2.95719 2.64131
upperneck -6.09018 -4.13117 1.99694
head -0.252884 -2.0924 0.0751612
lclavicle 1.82534e-14 1.3517e-14 0
lhumerus -41.2092 -10.501 92.5029
lradius 44.3597 0 0
lwrist 8.03273 0 0
lhand -12.2614 1.67674 0
lfingers 7.12502 0 0
lthumb 13.8169 31.3351 0
rclavicle 1.82534e-14 1.3517e-14 0
rhumerus -38.0676 2.89352 -92.959
rradius 43.2485 0 0
rwrist 7.0172 0 0
rhand -23.4548 -21.9755 0
rfingers 7.12502 0 0
rthumb 3.00379 -51.9321 0
75
root 5.9819 16.7094 -27.9026 11.6904 3.06029 -5.50856
lfemur -38.7781 14.6901 -13.5332
ltibia 51.4737 0 0
lfoot -19.0117 -4.25922 0
ltoes 26.0185 0 0
rfemur -10.8048 -3.57748 25.4319
rtibia 20.6284 0 0
rfoot -36.1453 -21.3039 0
rtoes -13.5729 0 0
lowerback -3.91597 3.42282 4.14078
upperback -1.82817 4.44314 -0.013699
thorax 0.573722 2.20551 -2.16505
lowerneck -10.1227 -3.00276 2.72499
upperneck -6.1008 -4.2007 1.95717
head -0.257329 -2.12851 0.0481583
lclavicle 1.71797e-14 1.42028e-14 0
lhumerus -41.3186 -10.2311 92.358
lradius 44.3268 0 0
lwrist 8.0544 0 0
lhand -12.3736 1.6311 0
lfingers 7.12502 0 0
lthumb 13.71 31.3107 0
rclavicle 1.71797e-14 1.42028e-14 0
rhumerus -37.9111 2.936 -92.9926
rradius 43.268 0 0
rwrist 7.08124 0 0
rhand -23.3419 -21.9255 0
rfingers 7.12502 0 0
rthumb 3.11288 -51.8804 0
76
root 5.99496 16.7073 -27.876 11.7201 3.01461 -5.65696
lfemur -38.9193 14.3667 -13.1144
ltibia 51.0387 0 0
lfoot -19.0401 -3.1206 0
ltoes 25.3123 0 0
rfemur -10.2657 -3.69327 25.6777
rtibia 19.8691 0 0
rfoot -36.7934 -21.557 0
rtoes -13.5935 0 0
lowerback -3.95679 3.51865 4.13753
upperback -1.87425 4.57332 0.0287711
thorax 0.551252 2.26944 -2.11576
lowerneck -10.136 -3.04966 2.80758
upperneck -6.09493 -4.27222 1.91412
head -0.256548 -2.16543 0.0199579
lclavicle 1.60218e-14 1.48404e-14 0
lhumerus -41.4387 -9.96766 92.2232
lradius 44.2981 0 0
lwrist 8.08866 0 0
lhand -12.4417 1.60362 0
lfingers 7.12502 0 0
lthumb 13.6453 31.2984 0
rclavicle 1.60218e-14 1.48404e-14 0
rhumerus -37.7689 2.96244 -92.9718
rradius 43.2957 0 0
rwrist 7.14423 0 0
rhand -23.232 -21.8606 0
rfingers 7.12502 0 0
rthumb 3.21896 -51.8139 0
77
root 6.01182 16.7054 -27.8466 11.7212 2.98892 -5.79296
lfemur -38.9992 13.9889 -12.7062
ltibia 50.5546 0 0
lfoot -19.0809 -1.99873 0
ltoes 24.6231 0 0
rfemur -9.8207 -3.80014 25.8499
rtibia 19.311 0 0
rfoot -37.2403 -21.6898 0
rtoes -13.5033 0 0
lowerback -3.98045 3.60586 4.11814
upperback -1.91555 4.6925 0.0761337
thorax 0.522924 2.32799 -2.05305
lowerneck -10.1499 -3.0991 2.88777
upperneck -6.07114 -4.34725 1.86799
head -0.249988 -2.20389 -0.00926516
lclavicle 1.47871e-14 1.54183e-14 0
lhumerus -41.5713 -9.71242 92.0991
lradius 44.2786 0 0
lwrist 8.13965 0 0
lhand -12.4539 1.59771 0
lfingers 7.12502 0 0
lthumb 13.6341 31.2998 0
rclavicle 1.47871e-14 1.54183e-14 0
rhumerus -37.6439 2.97563 -92.8857
rradius 43.3374 0 0
rwrist 7.20185 0 0
rhand -23.1242 -21.7791 0
rfingers 7.12502 0 0
rthumb 3.32313 -51.7308 0
